<svg width="76" height="64" viewBox="0 0 76 64" fill="none" xmlns="http://www.w3.org/2000/svg">
<g clip-path="url(#clip0_103_5)">
<path fill-rule="evenodd" clip-rule="evenodd" d="M73.8732 52.6864C71.3064 52.8699 42.9867 52.5028 42.9867 52.5028C30.599 52.4297 16.1623 52.334 6.91075 52.2401C4.58538 52.2164 3.82137 53.9721 2.26603 53.9491C2.26603 53.9491 -1.67418 59.1908 1.83472 62.0969C5.34362 65.0029 72.525 63.2858 74.2325 62.6913C75.94 62.0969 76.44 52.5028 73.8732 52.6864Z" fill="black"/>
<path fill-rule="evenodd" clip-rule="evenodd" d="M2.86057 32.875C2.98539 34.419 4.26531 35.6142 5.81431 35.633L39.8106 36.0468C51.7459 36.1925 62.659 36.3817 70.6487 36.5699C71.2245 36.5834 71.6909 36.1094 71.6702 35.5338L71.4969 30.7071C71.4184 28.5207 69.5989 26.8036 67.4111 26.8205C57.5577 26.8968 42.0787 26.6043 18.8436 25.9697L5.60722 25.6085C3.8231 25.5598 2.39131 27.0701 2.53512 28.8491L2.86057 32.875Z" fill="black"/>
<path fill-rule="evenodd" clip-rule="evenodd" d="M1.4401 8.00331C3.07686 9.30782 3.65786 8.80119 5.27375 8.89689C11.0488 9.23789 27.6907 9.74393 42.2557 10.0199C59.9902 10.3565 67.4402 12.0029 68.9402 10.0199L70.1264 2.89657C70.2186 2.34321 69.8394 1.82184 69.2825 1.75423C64.8664 1.21806 58.2096 0.988899 46.7737 0.899936C33.5737 0.796936 16.0237 0.464899 7.77375 0.161899C5.15688 0.0657881 2.4205 -0.554066 0.940186 1.50293C-0.540125 3.55993 -0.196669 6.69879 1.4401 8.00331Z" fill="black"/>
</g>
<defs>
<clipPath id="clip0_103_5">
<rect width="75.6562" height="63.7381" fill="white"/>
</clipPath>
</defs>
</svg>
