<svg width="144" height="140" viewBox="0 0 144 140" fill="none" xmlns="http://www.w3.org/2000/svg">
<path fill-rule="evenodd" clip-rule="evenodd" d="M88.0194 0.947603C81.5334 2.9126 77.1014 8.47655 77.1094 14.6425C77.1144 18.8305 80.6414 23.8995 84.7404 25.6125C87.8994 26.9325 88.2654 27.4436 87.7794 29.8696C87.2244 32.6476 85.6985 44.7275 84.5935 55.1075L83.9954 60.7236L78.5034 61.2895C72.4754 61.9115 64.8234 65.7806 63.0444 69.1056C62.0354 70.9896 61.8035 71.0286 60.1975 69.5746C59.2355 68.7036 58.1464 67.9915 57.7794 67.9915C57.4114 67.9915 54.9714 66.4705 52.3574 64.6115C46.5514 60.4815 41.2354 57.7986 34.4764 55.5886C29.7174 54.0326 29.3044 53.6386 28.7424 50.1206C28.0104 45.5476 25.0884 42.6626 20.7874 42.2656C19.0374 42.1036 15.8054 41.7375 13.6054 41.4515C11.2614 41.1465 8.58344 41.4676 7.13544 42.2256C0.0754414 45.9266 -2.38261 57.8806 2.67939 63.8966C7.85239 70.0446 17.0844 70.2455 24.0764 64.3625C27.1114 61.8085 27.1734 61.8016 31.3714 63.4526C33.7004 64.3686 39.4894 67.5645 44.2364 70.5545C48.9834 73.5445 53.8354 75.9915 55.0174 75.9915C57.4994 75.9915 57.7454 76.5575 58.4874 83.9915L59.0374 89.4915L51.9464 93.2595C46.7364 96.0285 44.5155 96.7465 43.5775 95.9675C38.7435 91.9565 29.3165 93.5515 22.2855 99.5695C17.1875 103.933 15.1054 107.678 15.1054 112.482C15.1054 121.764 23.5104 129.281 33.9664 129.35C48.2324 129.444 57.5994 116.787 52.7314 103.992C52.3184 102.905 53.8284 101.738 58.2144 99.7595L64.2674 97.0276L67.9365 99.8856C69.9545 101.458 73.1355 103.25 75.0045 103.868C79.5475 105.37 87.7244 105.218 92.4144 103.546L96.2224 102.186L107.292 118.821L105.06 121.837C103.258 124.275 102.929 125.741 103.349 129.465C103.969 134.968 106.117 137.616 111.196 139.137C118.856 141.432 130.908 136.149 133.089 129.54C134.564 125.071 133.054 119.884 129.455 117.053C127.329 115.38 125.976 115.173 120.527 115.681C114.681 116.227 114.105 116.111 114.099 114.387C114.096 113.345 111.621 109.394 108.599 105.608C105.577 101.822 103.105 98.4226 103.105 98.0526C103.105 97.6826 104.212 95.8815 105.563 94.0495C109.332 88.9405 110.559 81.3976 108.573 75.5476C107.686 72.9376 107.106 70.6986 107.283 70.5726C107.46 70.4466 109.037 69.3555 110.787 68.1485L113.969 65.9526L118.097 68.1046C129.47 74.0326 145.418 63.8205 143.787 51.6555C142.929 45.2645 138.992 41.3155 129.105 36.9305C124.973 35.0975 119.269 36.4436 115.407 40.1626C111.091 44.3186 109.117 48.8945 109.067 54.8635C109.031 59.1615 108.713 59.7235 104.609 62.7415C99.5095 66.4925 99.3494 66.5206 96.3644 64.2196C94.1364 62.5006 94.1295 62.4115 95.1655 47.9915C96.6985 26.6555 96.4724 27.4976 101.048 26.1266C106.404 24.5216 110.105 19.9336 110.105 14.8976C110.105 11.5076 109.442 10.3186 105.355 6.3746C98.8105 0.0586042 94.9444 -1.1514 88.0194 0.947603ZM98.5704 11.9555C102.35 15.9005 100.83 17.9915 94.1834 17.9915C87.2464 17.9915 84.5664 13.8836 89.3284 10.5486C92.6404 8.22755 95.4024 8.64854 98.5704 11.9555ZM131.382 48.1915C135.234 54.1335 134.891 57.0165 130.033 59.5285C125.938 61.6465 122.774 61.3326 120.158 58.5476C117.081 55.2726 117.964 50.1296 122.216 46.5516C126.429 43.0066 128.228 43.3285 131.382 48.1915ZM18.3895 47.8956C20.7905 51.9586 20.5335 55.6546 17.6505 58.5366C14.6895 61.4986 12.7444 61.6305 10.1594 59.0455C8.55937 57.4455 8.37845 56.5266 9.14045 53.8716C9.98145 50.9356 14.6254 44.9915 16.0764 44.9915C16.4054 44.9915 17.4465 46.2986 18.3895 47.8956ZM97.0584 74.6185C98.1844 77.1635 99.1034 80.4265 99.1014 81.8685C99.0924 88.5405 91.1145 94.9976 82.8955 94.9846C72.6535 94.9696 65.5324 83.8036 71.1834 76.6206C74.3554 72.5866 76.8674 71.6306 86.1054 70.9426C90.7804 70.5936 94.6964 70.2375 94.8084 70.1495C94.9204 70.0625 95.9324 72.0735 97.0584 74.6185ZM41.5804 107.549C44.6614 111.588 44.4634 114.649 40.9044 117.964C37.6814 120.967 30.7684 120.746 27.5604 117.537C24.0794 114.057 24.4154 110.805 28.6404 107.096C33.6794 102.671 37.9754 102.822 41.5804 107.549ZM124 124.796C125.519 127.634 123.094 129.882 116.927 131.355C113.375 132.203 110.656 129.702 112.131 126.945C113.981 123.488 122.477 121.95 124 124.796Z" fill="#1E1E1E"/>
</svg>
